<?xml version="1.0" encoding="UTF-8" standalone="no"?>
<svg width="38px" height="42px" viewBox="0 0 38 42" version="1.1" xmlns="http://www.w3.org/2000/svg" xmlns:xlink="http://www.w3.org/1999/xlink">
    <!-- Generator: Sketch 43.1 (39012) - http://www.bohemiancoding.com/sketch -->
    <title>002-airplane</title>
    <desc>Created with Sketch.</desc>
    <defs></defs>
    <g id="Page-1" stroke="none" stroke-width="1" fill="none" fill-rule="evenodd">
        <g id="each-project-copy" transform="translate(-905.000000, -5022.000000)" fill-rule="nonzero" fill="#000000">
            <g id="002-airplane" transform="translate(905.000000, 5022.000000)">
                <path d="M18.9141443,0 C8.46841005,0 0.000378290452,9.36617964 0.000378290452,20.918373 C0.000378290452,32.4705663 8.46841005,41.8375827 18.9141443,41.8375827 C29.3598785,41.8375827 37.8286669,32.4711241 37.8286669,20.918373 C37.8286669,9.3656218 29.3600046,0 18.9141443,0 Z M28.1168161,13.8706927 L24.0268658,18.153606 L26.6196686,29.706915 L25.0724607,31.4180722 L20.1216474,22.4888164 L20.0075298,22.3626063 L14.9151098,27.6955035 C14.8863598,27.7277185 14.8539529,27.7519843 14.8245723,27.7822468 L14.6610247,31.893626 L8.99108136,25.6232881 L12.7072807,25.4428286 C12.7347698,25.409498 12.7569628,25.3740755 12.7860912,25.3418606 L17.6080335,19.7095457 L17.567052,19.6636639 L9.42107151,14.1087486 L10.9682795,12.3975914 L21.3676101,15.3186914 L25.2865731,10.7406837 C26.0684994,9.87590085 27.3357724,9.87617977 28.1170683,10.7406837 C28.8984903,11.6050481 28.8984903,13.0063282 28.1168161,13.8706927 Z" id="Shape"></path>
            </g>
        </g>
    </g>
</svg>