<?xml version="1.0" encoding="UTF-8" standalone="no"?>
<svg width="31px" height="46px" viewBox="0 0 31 46" version="1.1" xmlns="http://www.w3.org/2000/svg" xmlns:xlink="http://www.w3.org/1999/xlink">
    <!-- Generator: Sketch 43.1 (39012) - http://www.bohemiancoding.com/sketch -->
    <title>Group 4</title>
    <desc>Created with Sketch.</desc>
    <defs></defs>
    <g id="Page-1" stroke="none" stroke-width="1" fill="none" fill-rule="evenodd">
        <g id="each-project-copy" transform="translate(-708.000000, -5090.000000)">
            <g id="Group-4" transform="translate(709.000000, 5091.000000)">
                <path d="M2.1161357,21.1921437 C0.773604417,19.0789596 0,16.5953476 0,13.9380531 C0,6.24027893 6.49187113,0 14.5,0 C22.5081289,0 29,6.24027893 29,13.9380531 C29,16.5953476 28.2263956,19.0789596 26.8838643,21.1921437 L14.5,45 L2.1161357,21.1921437 Z" id="Combined-Shape" stroke="#1D1D1D"></path>
                <ellipse id="Oval" fill="#FFFFFF" cx="14.5" cy="13.9380531" rx="13.1096605" ry="12.6015961"></ellipse>
                <g id="logo-nav-copy-2" transform="translate(4.930587, 6.587122)">
                    <path d="M12.5157951,11.1110396 C13.3803651,11.3153361 14.2503439,11.3189272 15.1124175,11.0986701 C16.128849,10.8393093 16.8407254,10.2148483 17.3354192,9.34259811 C17.3778572,9.26798201 17.4173828,9.19176985 17.4564923,9.11515867 C17.4623171,9.1039862 17.4594047,9.08802554 17.461485,9.06169045 L13.6091974,9.06169045 L13.6091974,6.75776874 L20.3614143,6.75776874 C20.3614143,7.09014955 20.3830493,7.42213134 20.3576697,7.75052198 C20.2486624,9.16782885 19.6828225,10.4099675 18.737121,11.4940955 C17.7897553,12.5798196 16.5790245,13.2473743 15.1273956,13.4863852 C13.5276499,13.7497362 11.9661815,13.6124745 10.4700344,12.9772401 C10.2312167,12.8758899 10.0028004,12.7529928 9.76939149,12.6400711 C8.98844928,12.1748178 8.32317139,11.5890614 7.78021477,10.8768168 C7.42656486,10.3728589 7.115769,9.84655605 6.89276153,9.27636136 C6.62357154,8.5888558 6.47087799,7.87900532 6.43468088,7.1444158 C6.36603119,5.76940468 6.66476135,4.48297525 7.42448457,3.30587635 C7.52600289,3.14906284 7.64000298,2.99983064 7.74817825,2.84700729 C8.2898867,2.1443391 8.93810617,1.55140047 9.71114327,1.08574813 C11.0308815,0.306069738 12.480014,0.0323443677 14.0086137,0.0937929203 C15.1506949,0.13928081 16.2478417,0.376296655 17.2717622,0.878658523 C18.0834928,1.27647805 18.7625006,1.83749535 19.3807639,2.47193171 C18.7970335,3.06487034 18.2153834,3.64344437 17.6566166,4.20007249 C17.2567841,3.89282973 16.8985576,3.56723221 16.4912361,3.3142557 C15.0179722,2.39970971 13.4444381,2.24130013 11.792269,2.81468695 C11.7698018,2.82266728 11.7494149,2.83663286 11.7281959,2.84780532 C11.6824295,2.86496303 11.6354148,2.87972665 11.5908965,2.89967748 C10.8153631,3.24761993 10.2008444,3.77631689 9.71114327,4.44427064 C8.72009141,5.87394703 8.73215711,7.81197053 9.74109949,9.25202135 C10.1172166,9.75957044 10.5653118,10.1976906 11.1161735,10.5296724 C11.3196263,10.6521705 11.5430498,10.7435453 11.75732,10.8492847 C12.0098677,10.9378664 12.2565905,11.04999 12.5157951,11.1110396 Z" id="Fill-12" fill="#1D1D1D"></path>
                    <path d="M7.78017316,10.8768966 C8.32312979,11.5891412 8.98840767,12.1744986 9.76934988,12.6397519 C9.13943699,13.0216107 8.45418828,13.2773804 7.72733371,13.4214253 C6.15920841,13.7314612 4.60938969,13.6847763 3.09535203,13.1528872 C2.18501556,12.8332749 1.4136427,12.2950016 0.688036298,11.6924865 C0.504554404,11.5404612 0.329809744,11.3792585 0.148824203,11.2248391 C0.0876635714,11.1725679 0.0622839897,11.1290751 0.13010156,11.0616413 C0.673058184,10.5221709 1.21393451,9.98110444 1.75605902,9.44123501 C1.76562837,9.43165861 1.78102254,9.42687041 1.79891307,9.416895 C2.03731471,9.6215905 2.27238789,9.83027617 2.51578224,10.0297845 C3.21933752,10.6075605 4.00444032,11.030518 4.9318352,11.1757601 C5.85298919,11.319805 6.75542055,11.2631447 7.63288838,10.9423354 C7.68323148,10.9239806 7.73107823,10.8988426 7.78017316,10.8768966" id="Fill-14" fill="#CC9F35"></path>
                    <path d="M9.71093524,1.08574813 C8.9383142,1.55140047 8.28967867,2.1443391 7.74797022,2.84700729 C7.6876417,2.8110958 7.63105772,2.76281479 7.56532044,2.74086888 C6.11119523,2.25765981 4.71365401,2.39931069 3.37228071,3.104772 C2.85220731,3.37809835 2.39745514,3.73641523 1.97723583,4.13423476 C1.91857155,4.19009708 1.87946204,4.26471318 1.82620652,4.33813223 C1.56492165,4.10111638 1.34940323,3.90679531 1.13554905,3.71127719 C0.791884553,3.39685213 0.451132465,3.07963395 0.105387673,2.76760299 C0.0271686341,2.69737607 0.020095636,2.6498931 0.0954022635,2.5704888 C1.34898717,1.24495574 2.89506136,0.434952092 4.7398657,0.168808036 C6.45777214,-0.0785822402 8.0766566,0.213497893 9.58778186,1.04065925 C9.6256432,1.06140811 9.66974543,1.07098451 9.71093524,1.08574813" id="Fill-16" fill="#CC9F35"></path>
                    <path d="M11.75732,10.8492847 C11.5430498,10.7435453 11.3196263,10.6521705 11.1161735,10.5296724 C10.5653118,10.1976906 10.1172166,9.75957044 9.74109949,9.25202135 C9.78187325,9.20812953 9.83263241,9.16982394 9.86175652,9.11994687 C10.1987641,8.5501512 10.3772533,7.93446862 10.431757,7.28327357 C10.5133045,6.31885051 10.3510416,5.40510255 9.82555941,4.56557168 C9.79726742,4.51968477 9.74983673,4.48457131 9.71114327,4.44427064 C10.2008444,3.77631689 10.8153631,3.24761993 11.5908965,2.89967748 C11.6354148,2.87972665 11.6824295,2.86496303 11.7281959,2.84780532 C12.4275906,3.77472083 12.8399048,4.8093708 12.9584815,5.94537099 C13.1336423,7.62682684 12.8756859,9.22409019 11.9000282,10.6705253 C11.8575902,10.7331709 11.8051668,10.7898312 11.75732,10.8492847" id="Fill-18" fill="#CC9F35"></path>
                </g>
            </g>
        </g>
    </g>
</svg>