<?xml version="1.0" encoding="UTF-8" standalone="no"?>
<svg width="28px" height="44px" viewBox="0 0 28 44" version="1.1" xmlns="http://www.w3.org/2000/svg" xmlns:xlink="http://www.w3.org/1999/xlink">
    <!-- Generator: Sketch 43.1 (39012) - http://www.bohemiancoding.com/sketch -->
    <title>Group 4</title>
    <desc>Created with Sketch.</desc>
    <defs></defs>
    <g id="Page-1" stroke="none" stroke-width="1" fill="none" fill-rule="evenodd">
        <g id="each-project-copy" transform="translate(-710.000000, -5092.000000)">
            <g id="Group-4" transform="translate(710.000000, 5092.000000)">
                <path d="M2.04316551,20.7212072 C0.746928402,18.6549827 0,16.2265621 0,13.6283186 C0,6.10160606 6.2680135,0 14,0 C21.7319865,0 28,6.10160606 28,13.6283186 C28,16.2265621 27.2530716,18.6549827 25.9568345,20.7212072 L14,44 L2.04316551,20.7212072 Z" id="Combined-Shape" fill="#1D1D1D"></path>
                <ellipse id="Oval" fill="#FFFFFF" cx="14" cy="13.6283186" rx="11.0546886" ry="10.7612013"></ellipse>
                <g id="logo-nav-copy-2" transform="translate(5.930617, 7.350951)" fill="#1D1D1D">
                    <path d="M10.5539131,9.48833247 C11.2829596,9.66279256 12.016567,9.66585924 12.7435085,9.47776945 C13.6006118,9.25628691 14.2008999,8.72302511 14.6180492,7.9781623 C14.6538349,7.91444347 14.6871648,7.84936168 14.7201438,7.78393915 C14.7250555,7.77439836 14.7225996,7.76076867 14.7243539,7.73827967 L11.4759219,7.73827967 L11.4759219,5.77083324 L17.169712,5.77083324 C17.169712,6.05467163 17.1879557,6.33816928 17.1665544,6.61860025 C17.0746342,7.82891714 16.5974912,8.88964813 15.8000308,9.81544514 C15.001167,10.7426051 13.9802212,11.3126671 12.7561388,11.5167718 C11.4071571,11.7416617 10.0904528,11.6244464 8.82883046,11.0819845 C8.62744803,10.995436 8.4348366,10.8904873 8.23801509,10.7940572 C7.57948752,10.3967516 7.01849359,9.89654182 6.56064677,9.2883167 C6.26243236,8.85795909 6.00035453,8.40851991 5.81230403,7.92159906 C5.58531024,7.33449996 5.45655179,6.72831929 5.42602866,6.1010126 C5.36813999,4.9268144 5.62004345,3.82826101 6.26067816,2.82307103 C6.34628324,2.68915928 6.44241353,2.56172163 6.53363205,2.4312173 C6.99042636,1.83117 7.53703582,1.32482684 8.18889743,0.927180497 C9.30176342,0.261369912 10.5237408,0.0276206481 11.8127287,0.0800949726 C12.7757858,0.118939602 13.7009522,0.321340568 14.5643706,0.750335208 C15.2488604,1.09005535 15.821432,1.56913912 16.342781,2.11091948 C15.8505518,2.61726264 15.3600768,3.11133907 14.888898,3.58667467 C14.5517403,3.32430305 14.2496667,3.04625728 13.9061939,2.83022662 C12.6638677,2.04924511 11.336989,1.91397039 9.9438015,2.40361717 C9.92485611,2.41043202 9.90766493,2.422358 9.88977207,2.43189879 C9.85117961,2.44655071 9.81153464,2.45915818 9.77399471,2.4761953 C9.12002806,2.77332264 8.60183667,3.22480628 8.18889743,3.795209 C7.35319541,5.0160889 7.36336978,6.67107458 8.21415794,7.90081378 C8.53131773,8.33423807 8.90917293,8.70837319 9.37368572,8.99187084 C9.54524672,9.09647874 9.73364805,9.17450875 9.9143309,9.26480547 C10.1272911,9.34045028 10.3353395,9.43619888 10.5539131,9.48833247 Z" id="Fill-12"></path>
                    <path d="M6.56061169,9.28838485 C7.01845851,9.89660997 7.57945243,10.396479 8.23798001,10.7937846 C7.70680753,11.1198751 7.12897326,11.3382909 6.51605495,11.4612989 C5.19373718,11.7260557 3.8868564,11.6861889 2.6101479,11.2319793 C1.84250894,10.9590447 1.19205069,10.4993832 0.580184898,9.98486224 C0.425464248,9.8550394 0.278111247,9.71737949 0.125495639,9.58551219 C0.0739220887,9.54087494 0.0525208196,9.50373402 0.109707817,9.44614856 C0.567554641,8.98546488 1.02364726,8.52341823 1.48079241,8.06239381 C1.48886174,8.05421599 1.50184283,8.05012708 1.51692897,8.04160852 C1.71796057,8.21640936 1.91618544,8.39461762 2.12142712,8.5649888 C2.71469837,9.05838375 3.37673435,9.41957066 4.15875777,9.54360088 C4.93551859,9.66660887 5.69649159,9.61822346 6.43641416,9.34426659 C6.47886585,9.32859244 6.51921251,9.30712568 6.56061169,9.28838485" id="Fill-14"></path>
                    <path d="M8.18872201,0.927180497 C7.53721124,1.32482684 6.99025094,1.83117 6.53345663,2.4312173 C6.48258476,2.40055049 6.43487046,2.35932067 6.37943766,2.34057983 C5.15325019,1.92794083 3.97477703,2.04890437 2.84366733,2.65133687 C2.40511673,2.88474539 2.02164809,3.19073204 1.6672992,3.53045218 C1.6178307,3.57815611 1.58485169,3.64187493 1.53994411,3.70457153 C1.31961629,3.50217056 1.13788092,3.33622903 0.957548917,3.16926527 C0.667754682,2.90076029 0.38041633,2.6298701 0.0888678931,2.36340957 C0.0229098832,2.30343892 0.0169455951,2.26289058 0.0804477216,2.19508284 C1.13753008,1.0631367 2.4412533,0.371429696 3.99687998,0.144154538 C5.44550031,-0.0671057299 6.81062061,0.182317683 8.08487323,0.888676609 C8.11679971,0.906395212 8.1539888,0.914573029 8.18872201,0.927180497" id="Fill-16"></path>
                    <path d="M9.9143309,9.26480547 C9.73364805,9.17450875 9.54524672,9.09647874 9.37368572,8.99187084 C8.90917293,8.70837319 8.53131773,8.33423807 8.21415794,7.90081378 C8.24854031,7.86333212 8.29134285,7.83062085 8.31590168,7.78802806 C8.60008247,7.30144796 8.75059303,6.77568248 8.79655314,6.21959094 C8.86531787,5.39601664 8.72849008,4.61571662 8.28537856,3.89879468 C8.26152141,3.85960931 8.22152559,3.82962398 8.18889743,3.795209 C8.60183667,3.22480628 9.12002806,2.77332264 9.77399471,2.4761953 C9.81153464,2.45915818 9.85117961,2.44655071 9.88977207,2.43189879 C10.4795349,3.22344331 10.8272178,4.10698827 10.9272074,5.07708178 C11.0749112,6.51297012 10.8573901,7.87696181 10.0346692,9.11215289 C9.99888345,9.16564944 9.95467755,9.21403486 9.9143309,9.26480547" id="Fill-18"></path>
                </g>
            </g>
        </g>
    </g>
</svg>