<?xml version="1.0" encoding="UTF-8" standalone="no"?>
<svg width="26px" height="30px" viewBox="0 0 26 30" version="1.1" xmlns="http://www.w3.org/2000/svg" xmlns:xlink="http://www.w3.org/1999/xlink">
    <!-- Generator: Sketch 43.1 (39012) - http://www.bohemiancoding.com/sketch -->
    <title>Combined Shape</title>
    <desc>Created with Sketch.</desc>
    <defs></defs>
    <g id="Page-1" stroke="none" stroke-width="1" fill="none" fill-rule="evenodd">
        <g id="each-project-copy" transform="translate(-791.000000, -5106.000000)" fill-rule="nonzero" fill="#1C1C1C">
            <g id="004-istanbul-metro-logo" transform="translate(791.000000, 5105.000000)">
                <path d="M18.8665783,22.6416567 C19.0168893,22.6994285 21.5197289,22.6371383 21.7525512,22.6297151 L22.9214598,22.6048635 L21.4899865,23.9429741 C14.8232099,29.7259615 13.35208,30.9933904 13.3079462,30.9933904 C13.2801226,30.9933904 11.0101053,29.138884 8.26356988,26.8728747 C5.51671463,24.6065427 3.2869935,22.6468207 3.2869935,22.6180962 L6.12019767,22.5809802 L7.59004826,22.5809802 L7.6236284,16.7570039 C7.64153781,13.5537363 7.67543776,10.9327049 7.69686508,10.9327049 C7.71893203,10.9327049 8.90063306,11.806382 10.322512,12.8740303 C11.7440712,13.9416786 12.9727844,14.8421438 13.0527371,14.8747413 C13.1758643,14.9254126 13.60569,14.6384902 15.9265573,12.9560081 C17.4264701,11.867704 18.6782097,10.9920904 18.7073125,11.010487 C18.7367351,11.0285609 18.7594416,13.64346 18.7594416,16.8215534 C18.7594416,22.0284367 18.7703152,22.6045408 18.8665783,22.6416567 Z M13.2155208,10.5560587 C13.1649907,10.5554132 11.2873813,9.16372655 9.04230926,7.46317066 C6.79723721,5.76261476 4.95064946,4.34026711 4.93785702,4.30250566 C4.87357505,4.10627526 6.66355628,2.83658711 7.7918489,2.27855691 C12.0737961,0.16004317 17.2093185,0.692253583 20.9527043,3.64151905 C21.2526869,3.87777012 21.5350798,4.11692593 21.5817722,4.17340671 C21.6540495,4.26151675 21.0588815,4.73272791 17.4865945,7.41669503 C15.1877942,9.14468445 13.2663707,10.5570269 13.2155208,10.5560587 Z M25.1300734,9.64106991 C25.9593429,12.2788842 25.9593429,14.8311704 25.1300734,17.4689846 C24.8252937,18.435613 24.0759769,19.9589806 23.5204655,20.7413202 C23.0583388,21.3906879 22.0173546,22.5406368 21.9322849,22.5406368 C21.8843133,16.5362447 21.8229096,10.5057101 21.9278075,4.49583134 C22.0221517,4.49583134 23.0349927,5.68902836 23.5271815,6.38067598 C24.0759769,7.15042845 24.8265729,8.67766901 25.1300734,9.64106991 Z M4.64554992,22.549351 C4.64682916,22.5890489 4.29983441,22.2779204 4.01648201,21.9500091 C3.21151814,21.0195284 2.66943878,20.2094325 2.16093956,19.1743817 C0.676377668,16.1570166 0.435240299,12.8869402 1.45575667,9.64074716 C1.75797791,8.68121923 2.50889374,7.15107395 3.05193254,6.38906741 C3.54156292,5.70097002 4.50131524,4.56360828 4.59150189,4.56360828 C4.67305365,4.56360828 4.6391537,22.3686124 4.64554992,22.549351 Z" id="Combined-Shape"></path>
            </g>
        </g>
    </g>
</svg>