<?xml version="1.0" encoding="UTF-8" standalone="no"?>
<svg width="34px" height="34px" viewBox="0 0 34 34" version="1.1" xmlns="http://www.w3.org/2000/svg" xmlns:xlink="http://www.w3.org/1999/xlink">
    <!-- Generator: Sketch 43.1 (39012) - http://www.bohemiancoding.com/sketch -->
    <title>Group 2</title>
    <desc>Created with Sketch.</desc>
    <defs></defs>
    <g id="Page-1" stroke="none" stroke-width="1" fill="none" fill-rule="evenodd">
        <g id="tryingg" transform="translate(-258.000000, -327.000000)">
            <g id="Group-2" transform="translate(258.000000, 327.000000)">
                <circle id="Oval-5" fill="#2D2725" cx="17" cy="17" r="17"></circle>
                <g id="006-sports-copy" transform="translate(8.000000, 10.000000)" fill-rule="nonzero" fill="#FFFFFF">
                    <path d="M18.6325294,11.28202 C18.1219377,11.28202 17.6535663,11.0599579 17.3475496,10.6728556 C17.2905845,10.6007683 17.2004232,10.5582466 17.1045412,10.5582466 C17.0082966,10.5583219 16.918095,10.601032 16.8612104,10.6732699 C16.5610756,11.0544591 16.0813434,11.28202 15.5779226,11.28202 C15.0747839,11.28202 14.5944474,11.0543084 14.2929428,10.6728556 C14.2359777,10.6007683 14.1458164,10.5582466 14.0499344,10.5582466 C13.9540524,10.5582466 13.8638911,10.6007683 13.8069259,10.6728556 C13.5054214,11.0542707 13.0250445,11.28202 12.5219461,11.28202 C12.0123212,11.28202 11.5444332,11.0599579 11.2382957,10.672818 C11.1812903,10.6007683 11.091129,10.5582466 10.9952873,10.5582466 C10.8994456,10.5582466 10.8092843,10.6007683 10.7523191,10.6728556 C10.4508145,11.0542707 9.97043772,11.28202 9.46733928,11.28202 C8.96387827,11.28202 8.48414603,11.0544591 8.18401123,10.6732699 C8.12716691,10.6011073 8.03712647,10.5584349 7.94128476,10.5582466 C7.8450402,10.5582466 7.75504004,10.60058 7.69803457,10.672366 C7.39052734,11.0598072 6.92203505,11.28202 6.41273248,11.28202 C5.90931175,11.28202 5.42953922,11.0544591 5.12944471,10.6732699 C5.0725601,10.601032 4.98235852,10.5583219 4.88639595,10.5582466 C4.79027224,10.5582466 4.70007066,10.6007683 4.64310548,10.6728556 C4.34164122,11.0543084 3.86074067,11.28202 3.35667536,11.28202 C2.8545438,11.28202 2.3746907,11.0542707 2.07298472,10.6727803 C2.01597926,10.6007306 1.92585824,10.5582466 1.82997625,10.5582466 C1.73409426,10.5582466 1.64397325,10.600806 1.58700807,10.6728556 C1.28111229,11.0599579 0.812781149,11.28202 0.302149126,11.28202 C0.135282235,11.28202 0,11.4084553 0,11.5644939 C0,11.7205325 0.135282235,11.8469678 0.302149126,11.8469678 C0.873009542,11.8469678 1.42227637,11.6348864 1.8301374,11.267482 C2.23795815,11.6349241 2.78670125,11.8469678 3.35675593,11.8469678 C3.92826093,11.8469678 4.47785005,11.6350371 4.88583194,11.2677457 C5.29280667,11.6349994 5.84163034,11.8469678 6.41281305,11.8469678 C6.99193221,11.8469678 7.53225542,11.639406 7.94096247,11.2682353 C8.34789691,11.6351877 8.89651915,11.8469678 9.46746014,11.8469678 C10.0379177,11.8469678 10.5867817,11.6352254 10.9945621,11.2682353 C11.4023829,11.639406 11.9424241,11.8469678 12.5220267,11.8469678 C13.0928468,11.8469678 13.6421136,11.6348864 14.0499746,11.267482 C14.4578357,11.6348864 15.0070622,11.8469678 15.5779629,11.8469678 C16.1491456,11.8469678 16.697929,11.6350371 17.1049037,11.2677833 C17.5127648,11.6349994 18.0618705,11.8469678 18.6325294,11.8469678 C18.7993963,11.8469678 18.9346786,11.7205325 18.9346786,11.5644939 C18.9346786,11.4084553 18.7993963,11.28202 18.6325294,11.28202 Z" id="Shape"></path>
                    <path d="M0.302149126,13.7175727 C0.873009542,13.7175727 1.42227637,13.5054913 1.8301374,13.138087 C2.06041532,13.3455735 2.33565303,13.5034199 2.63425694,13.6016078 C2.6487601,13.6073703 2.66394813,13.6118145 2.67949874,13.6154302 C2.89636124,13.681868 3.1247054,13.7175727 3.35675593,13.7175727 C3.58916904,13.7175727 3.81779521,13.681981 4.03489943,13.6156562 C4.04992631,13.6121158 4.0646309,13.6078599 4.07865062,13.6023234 C4.37858399,13.5042485 4.65490944,13.3462514 4.88583194,13.1383506 C5.29280667,13.5056043 5.84163034,13.7175727 6.41281305,13.7175727 C6.99193221,13.7175727 7.53225542,13.5100109 7.94096247,13.1388402 C8.17083753,13.3461384 8.44599466,13.5038718 8.74484029,13.6019091 C8.7595046,13.6077469 8.77485377,13.6122288 8.79060581,13.6158821 C9.00726688,13.6820564 9.23540961,13.7175727 9.46746014,13.7175727 C9.69910781,13.7175727 9.92700882,13.682094 10.143549,13.6160328 C10.1596234,13.6123418 10.1753351,13.6077469 10.1902814,13.6017584 C10.4890062,13.5036835 10.7642842,13.3460631 10.9945621,13.1388026 C11.4023829,13.5100109 11.9424241,13.7175727 12.5220267,13.7175727 C13.0928468,13.7175727 13.6421136,13.5054913 14.0499746,13.138087 C14.4578357,13.5054913 15.0070622,13.7175727 15.5779629,13.7175727 C16.1491456,13.7175727 16.697929,13.505642 17.1049037,13.1383883 C17.5127648,13.5056043 18.0618705,13.7175727 18.6325294,13.7175727 C18.7993963,13.7175727 18.9346786,13.5911374 18.9346786,13.4350988 C18.9346786,13.2790603 18.7993963,13.1526249 18.6325294,13.1526249 C18.1219377,13.1526249 17.6535663,12.9305628 17.3475496,12.5434606 C17.2905845,12.4713732 17.2004232,12.4288515 17.1045412,12.4288515 C17.0082966,12.4289268 16.918095,12.4716369 16.8612104,12.5438749 C16.5611159,12.925064 16.0813837,13.1526249 15.5779629,13.1526249 C15.0748242,13.1526249 14.5944877,12.9249133 14.2929831,12.5434606 C14.2360179,12.4713732 14.1458566,12.4288515 14.0499746,12.4288515 C13.9540927,12.4288515 13.8639314,12.4713732 13.8069662,12.5434606 C13.5054616,12.9248757 13.0251251,13.1526249 12.5220267,13.1526249 C12.0124018,13.1526249 11.5445138,12.9305628 11.2383763,12.5434229 C11.1813708,12.4713732 11.0912095,12.4288515 10.9953678,12.4288515 C10.8995261,12.4288515 10.8093648,12.4713732 10.7523997,12.5434606 C10.6462446,12.6777675 10.5175694,12.7925272 10.3738672,12.88548 L10.3738672,3.70372242 C10.3738672,2.59604811 11.3378035,1.69484339 12.5226712,1.69484339 C13.707539,1.69484339 14.6714753,2.59604811 14.6714753,3.70372242 C14.6714753,4.17097191 15.0780874,4.55114411 15.5779226,4.55114411 C16.0777579,4.55114411 16.48437,4.17097191 16.48437,3.70372242 C16.48437,1.6614738 14.7071691,0 12.5226712,0 C10.3381734,0 8.56097248,1.6614738 8.56097248,3.70372242 L8.56097248,6.77937354 L4.26320331,6.77937354 L4.26320331,3.70372242 C4.26320331,2.59604811 5.22713959,1.69484339 6.41200732,1.69484339 C6.92908519,1.69484339 7.42940386,1.87035383 7.82082798,2.18905972 C7.94664288,2.29161657 8.13752055,2.27930071 8.24714025,2.16160325 C8.35671967,2.04398112 8.34358625,1.86553295 8.21773107,1.76308908 C7.71628438,1.35478248 7.07500308,1.12989559 6.41204761,1.12989559 C4.89396982,1.12989559 3.65894534,2.28449823 3.65894534,3.70372242 L3.65894534,6.77937354 L3.05464709,6.77937354 L3.05464709,3.70372242 C3.05464709,1.97298602 4.56075977,0.564947795 6.41204761,0.564947795 C7.15122523,0.564947795 7.85297665,0.786407331 8.441402,1.20533495 C8.57406561,1.29986955 8.7636944,1.27584044 8.86485393,1.15174024 C8.96593288,1.02764004 8.94031063,0.850397085 8.80752617,0.755862487 C8.11298604,0.26134485 7.284614,1.33806517e-16 6.41204761,1.33806517e-16 C4.22754971,1.33806517e-16 2.45034884,1.6614738 2.45034884,3.70372242 L2.45034884,12.8846514 C2.30725101,12.7918116 2.17901892,12.6773532 2.07310558,12.5433852 C2.01610012,12.4713356 1.9259791,12.4288515 1.83009711,12.4288515 C1.73421512,12.4288515 1.64409411,12.4714109 1.58712893,12.5434606 C1.28111229,12.9305628 0.812781149,13.1526249 0.302149126,13.1526249 C0.135282235,13.1526249 0,13.2790603 0,13.4350988 C0,13.5911374 0.135282235,13.7175727 0.302149126,13.7175727 Z M8.1840918,12.5438749 C8.12724748,12.4717122 8.03720704,12.4290398 7.94136534,12.4288515 C7.84512077,12.4288515 7.75512062,12.4711849 7.69811515,12.5429709 C7.39060791,12.9304498 6.92211562,13.1526249 6.41281305,13.1526249 C5.90939232,13.1526249 5.4296198,12.925064 5.12952528,12.5438749 C5.07264067,12.4716369 4.98243909,12.4289268 4.88647653,12.4288515 C4.79035282,12.4288515 4.70015123,12.4713732 4.64318605,12.5434606 C4.5367087,12.6781818 4.40755002,12.7932428 4.26320331,12.8863462 L4.26320331,11.2989936 L8.56097248,11.2989936 L8.56097248,12.885367 C8.41775379,12.7924896 8.28964256,12.6779181 8.1840918,12.5438749 Z M8.56097248,8.47421693 L8.56097248,9.60411252 L4.26320331,9.60411252 L4.26320331,8.47421693 L8.56097248,8.47421693 L8.56097248,8.47421693 Z M3.65890506,9.60411252 L3.0546068,9.60411252 L3.0546068,8.47421693 L3.65890506,8.47421693 L3.65890506,9.60411252 Z M3.0546068,10.1690603 L8.56097248,10.1690603 L8.56097248,10.7340081 L3.0546068,10.7340081 L3.0546068,10.1690603 Z M9.16527073,3.70372242 C9.16527073,1.97298602 10.6713834,0.564947795 12.5226712,0.564947795 C14.3739591,0.564947795 15.8800718,1.97298602 15.8800718,3.70372242 C15.8800718,3.85949736 15.7445075,3.98619632 15.5779226,3.98619632 C15.4112975,3.98619632 15.2757735,3.85949736 15.2757735,3.70372242 C15.2757735,2.28449823 14.040749,1.12989559 12.5226712,1.12989559 C11.0045935,1.12989559 9.76956898,2.28449823 9.76956898,3.70372242 L9.76956898,13.1246412 C9.67062522,13.1427572 9.56954626,13.1526249 9.46741986,13.1526249 C9.36525317,13.1526249 9.26417421,13.1427949 9.16527073,13.1246412 L9.16527073,3.70372242 L9.16527073,3.70372242 Z M8.56097248,7.34432134 L8.56097248,7.90926913 L3.0546068,7.90926913 L3.0546068,7.34432134 L8.56097248,7.34432134 Z M3.0546068,11.2989559 L3.65890506,11.2989559 L3.65890506,13.1247165 C3.55996129,13.1427949 3.45888234,13.1526249 3.35675593,13.1526249 C3.25462953,13.1526249 3.15355057,13.1427195 3.0546068,13.1245282 L3.0546068,11.2989559 Z" id="Shape"></path>
                </g>
            </g>
        </g>
    </g>
</svg>