<?xml version="1.0" encoding="UTF-8" standalone="no"?>
<svg width="36px" height="37px" viewBox="0 0 36 37" version="1.1" xmlns="http://www.w3.org/2000/svg" xmlns:xlink="http://www.w3.org/1999/xlink">
    <!-- Generator: Sketch 43.1 (39012) - http://www.bohemiancoding.com/sketch -->
    <title>007-monument</title>
    <desc>Created with Sketch.</desc>
    <defs></defs>
    <g id="Page-1" stroke="none" stroke-width="1" fill="none" fill-rule="evenodd">
        <g id="each-project-copy" transform="translate(-1021.000000, -5043.000000)" fill-rule="nonzero" fill="#000000">
            <g id="007-monument" transform="translate(1021.000000, 5043.000000)">
                <path d="M34.7950039,10.5357465 C34.7950039,10.5357465 35.0607197,10.1605635 35.2626841,9.6076015 C35.4620985,9.06618359 35.3810067,8.42260046 35.3810067,8.42260046 C35.3810067,8.42260046 34.8332547,8.7793129 34.5328581,9.11005114 C34.2294015,9.44194378 34.208491,9.94353457 34.208491,9.94353457 C34.208491,9.94353457 33.9463453,9.68263809 33.2552801,9.25204347 C32.567275,8.8295297 31.0739622,7.99142863 28.7661615,8.49359663 C26.4619309,8.99518742 24.5024679,10.8439737 24.1796308,11.0621571 C23.8547537,11.2745684 23.3697331,11.2035722 23.3105718,11.0869769 C23.2473304,10.9674955 23.3523927,10.4191512 23.3523927,10.4191512 L23.7364311,10.4191512 C23.9174851,10.4191512 23.9965368,10.1622951 24.1204695,9.94526619 C24.2387921,9.73285489 24.0995591,9.35247707 24.0398878,9.13660255 C23.9771564,8.92419126 23.6349389,8.75622472 23.3523927,8.78104452 C23.0693365,8.8047099 22.4624231,8.97094483 22.2981995,8.99749624 C22.138056,9.02116163 21.6943463,8.44915187 21.5321627,8.32967052 C21.3679391,8.21018917 21.1669947,6.85318117 20.9476899,6.16573049 C20.724305,5.47770261 19.7343732,4.54493999 19.7343732,4.54493999 C19.7343732,4.54493999 19.8950268,4.07220942 19.8108749,4.04738963 C19.7343732,4.02372424 19.6109505,3.85748931 19.6716419,3.69183159 C19.7308032,3.52559667 20.0541503,3.11866743 20.0750607,2.85834816 C20.0995413,2.59398845 20.1587026,2.14261446 20.1954234,1.97637954 C20.2372443,1.81014461 20.2178639,1.37954998 20.0975012,1.28892886 C19.9776486,1.19022688 19.9144072,0.688058878 19.7710941,0.501621793 C19.6288009,0.308258254 19.2876034,0.451404993 19.0642185,0.548375365 C18.8408336,0.640150896 18.5562474,1.04592573 18.4190544,1.28719725 C18.2757412,1.5192335 18.2165799,2.02082429 18.2165799,2.28172077 C18.2165799,2.54723488 18.2369804,2.80409093 18.3359225,2.90279291 C18.4379248,2.99860887 18.4583252,3.30568172 18.4583252,3.30568172 C18.4583252,3.30568172 18.3359225,3.70741612 18.2558508,3.77841228 C18.175779,3.85748931 17.6519975,3.00034049 17.2052277,3.00034049 C16.762028,3.00034049 16.5401731,3.90366568 16.5401731,3.90366568 C16.5401731,3.90366568 16.1561347,4.26037812 15.9740607,4.30886331 C15.7899466,4.35503967 15.0820511,4.45027843 14.9213976,4.30886331 C14.760234,4.16629377 14.6403814,4.02314703 14.5383792,3.8309379 C14.437397,3.64507802 14.1920816,3.54349001 13.9513563,3.54349001 C13.7075709,3.54349001 13.527027,3.76051894 13.4449152,3.87942309 C13.3648434,3.99255519 12.0515646,4.87510102 11.888361,5.0869351 C11.7277075,5.30511844 11.9903632,5.70627563 11.9510924,6.01912052 C11.9097815,6.33138821 12.1948777,7.70571235 12.2122181,8.09013061 C12.2321085,8.46646801 12.0500345,8.61250077 11.7690184,8.70716233 C11.4844321,8.80009227 10.8989393,9.08754016 10.8989393,9.08754016 C10.8989393,9.08754016 11.1003937,9.0679152 11.3650895,9.08754016 C11.6262152,9.11235995 11.9714928,8.90168028 12.0520746,9.0182756 C12.1341864,9.13198491 11.706287,9.58913095 11.5441034,9.77672244 C11.38702,9.96893157 11.8286897,10.4710996 12.0520746,10.4907245 C12.2739295,10.5115039 12.4560035,10.9184331 12.6579679,10.7521982 C12.8599323,10.5859633 13.0006954,9.25088906 13.1047377,8.87108843 C13.2052099,8.4907106 13.9931772,7.11292323 14.075289,6.96804488 C14.1538307,6.82547534 14.1757612,5.97236695 14.3160143,5.8528856 C14.4593274,5.73167264 14.4593274,5.39977999 14.4593274,5.39977999 C14.4593274,5.39977999 15.3268565,5.76053287 15.7108949,5.8274886 C16.0934033,5.89733035 16.9048311,5.68491906 16.9048311,5.68491906 C16.9048311,6.68406022 17.7539998,7.87714212 17.8753824,8.49475104 C17.9947251,9.11235995 17.5907962,9.73054608 17.1873773,10.1622951 C16.7834485,10.5888493 16.217336,11.8708207 15.7736263,12.3400881 C15.3268565,12.816859 14.438417,13.0581306 13.1832794,13.1487517 C11.9301819,13.2503397 10.47563,14.6766123 10.47563,14.6766123 C10.47563,14.6766123 9.42296687,14.3470284 8.29227205,14.3932048 C7.1605572,14.4399584 5.66265432,16.1017304 5.30156639,16.9623425 C4.93588836,17.8154508 4.41108684,22.8625278 4.08671972,23.3381444 C3.76286261,23.8102978 3.27886198,25.3866435 2.91573401,27.0028164 C2.55005598,28.6224525 0.246845419,33.8576982 0.246845419,33.8576982 C0.246845419,33.8576982 0.892009583,33.3797728 1.29440842,32.8539394 C1.69833728,32.3327236 5.13836281,27.0010848 6.43277122,24.1987565 C7.72411957,21.3900789 8.08928759,18.6281549 8.29176204,17.6330542 C8.49321646,16.6333358 9.26231334,16.3441563 9.26231334,16.3441563 C9.26231334,16.3441563 8.97772709,17.7681201 9.13991066,19.0056467 C9.30311424,20.2443278 10.3129364,21.8125927 10.2716255,23.2902364 C10.2323546,24.7655714 9.13991066,26.3828987 8.65386999,26.8596697 C8.18108961,27.3237422 6.69899707,33.4334528 6.63626569,33.6983897 L0,34.2779031 L0,37 L34.3727146,37 L34.3727146,34.2779031 L27.1769666,31.8975114 L23.22897,32.2472974 C23.2024494,32.1993894 23.185109,32.150327 23.1733787,32.1162719 C23.1121774,31.9009746 22.9499938,31.5200196 22.8082107,31.3503214 C22.6689777,31.1840865 22.365011,30.1907174 22.365011,29.693167 C22.365011,29.1915762 22.8082107,27.3381723 22.909703,27.0305222 C23.0106852,26.722295 23.4727553,25.7427788 23.5553771,25.0114605 C23.6354489,24.2732159 24.4264763,22.084456 24.4264763,22.084456 C24.4264763,22.084456 25.8397173,22.4654111 26.6674655,22.6293372 C27.4947036,22.7955721 29.6607212,23.3681591 30.0049787,23.5574822 C30.3451562,23.7531545 30.9520695,24.3217011 31.2162553,25.199052 C31.476361,26.0821751 32.2265875,28.2749753 32.1062249,28.5075888 C31.9858622,28.7425111 32.249028,29.2244769 32.065934,29.4143772 C31.8828399,29.6013915 31.6436447,30.1722468 31.6191642,30.4337205 C31.6018238,30.6963486 32.1827265,31.3382001 32.4520124,31.4293984 C32.7121182,31.5281004 32.9140826,31.1275204 33.117067,30.6744148 C33.3190315,30.2201548 33.3613624,29.4559359 33.298121,28.9837826 C33.2389597,28.5075888 33.0573957,27.582907 33.0747361,27.2729482 C33.0992167,26.9606805 31.8634595,24.1046721 31.7619673,23.6538753 C31.6609851,23.1978837 31.1372036,22.4429001 30.5716012,22.2016286 C30.0085488,21.9667063 27.4549227,20.0428834 27.4549227,20.0428834 C27.4549227,20.0428834 27.8614017,19.5372522 28.0444957,18.9646652 C28.2275897,18.3955415 28.3046014,17.0870186 28.1842388,16.5427147 C28.0674462,15.9943703 28.1439479,15.3288535 28.7911521,14.3787747 C29.4373363,13.4217695 30.8087564,12.5415325 30.8087564,12.5415325 C30.6486129,13.0898768 30.9515595,13.4235011 30.9709399,13.8258127 C30.9918504,14.2327419 30.9709399,14.517881 30.7878459,14.7077813 C30.6067919,14.8982588 30.5680311,15.4240922 30.5083598,15.6607461 C30.4476684,15.8979772 30.7108342,16.5652257 30.8679177,16.6350675 C31.0321413,16.7066408 31.1137431,17.0379563 31.2346157,17.1366582 C31.3529383,17.2278566 31.9817821,17.2278566 32.2678984,17.1083752 C32.5468745,16.9894711 32.8508412,15.9441535 33.0145548,15.7530988 C33.1752083,15.5631985 33.6219781,15.1100929 33.9223747,14.8249538 C34.1824804,14.5802191 34.5017474,14.0786283 34.5491785,13.9955108 C34.4981774,14.0994077 34.7934738,14.5444324 34.7934738,14.5444324 C34.7934738,14.5444324 34.7761335,14.2362052 34.8791557,13.9753087 C34.9765679,13.710949 35.5044295,13.643416 35.7237343,12.6206095 C35.9471192,11.5862589 34.7950039,10.5357465 34.7950039,10.5357465 Z M12.4713038,5.67222056 C12.3075902,5.68434186 12.0908354,5.90598842 12.0908354,5.90598842 C12.0908354,5.90598842 11.9296719,5.29011112 11.9837331,5.22661861 C12.0383043,5.16428052 12.3075902,5.06961896 12.3075902,5.06961896 C12.3075902,5.06961896 12.117356,5.21103409 12.2927999,5.30569564 C12.4702838,5.4003572 13.0613867,5.47943423 13.0613867,5.47943423 C13.0613867,5.47943423 12.6283872,5.65317281 12.4713038,5.67222056 Z M16.7824284,3.72011462 C16.7553978,3.76051894 16.9568523,3.17177025 17.1470864,3.17177025 C17.3368106,3.17177025 17.5505053,3.44998287 17.5505053,3.44998287 C17.5505053,3.44998287 17.0787449,3.340314 16.7824284,3.72011462 Z M7.68280867,15.2451588 C7.01622403,15.6757534 6.36952984,16.5051964 6.06607317,16.8411295 C5.76414654,17.1787942 5.27810587,18.2910674 5.27810587,18.2910674 C5.27810587,18.2910674 5.36021768,17.0783606 5.90694968,16.4630605 C6.45164164,15.8419883 7.46299384,14.8203362 8.06939715,14.7297151 C8.67529046,14.6310131 9.72744355,14.8913324 9.72744355,14.8913324 C9.72744355,14.8913324 8.35143335,14.8186046 7.68280867,15.2451588 Z M19.4630473,2.23785322 C19.4895679,2.12645273 19.6599116,1.76569986 19.7155028,1.93597521 C19.7155028,1.93597521 19.7971046,2.35098532 19.7517136,2.33482359 C19.7083627,2.32270229 19.5670896,2.42544471 19.5380189,2.41794105 C19.5043582,2.41563223 19.4360167,2.35040811 19.4630473,2.23785322 Z M18.6551896,3.24911567 L19.0336179,3.51347537 L18.8857146,4.13397031 L18.401204,3.86499297 L18.6551896,3.24911567 Z M15.9062292,12.5028597 C16.0260818,12.3210403 16.5248728,11.7097806 16.6875664,11.4125203 C16.8507699,11.1094879 17.0659947,10.5345921 17.4989942,10.0780232 C17.9304636,9.61395075 18.1048875,8.85319509 18.1048875,8.85319509 C18.1461984,9.22145162 17.9712645,10.142093 17.9569842,10.1882693 C17.944744,10.2350229 18.4165043,9.71496155 18.4165043,9.71496155 C18.4165043,9.71496155 18.3354125,10.3192948 18.1196778,10.7885621 C17.903433,11.2664875 17.2434786,12.1721215 17.2434786,12.1721215 L17.4719636,11.5371965 C17.4719636,11.5371965 16.9058511,12.1415297 16.5697538,12.4578378 C16.2316163,12.7776091 15.4594594,13.8494781 15.4594594,13.8494781 C15.4594594,13.8494781 15.7848465,12.6950689 15.9062292,12.5028597 Z M21.9177312,23.810875 C21.8779503,24.1468081 21.8376594,25.8593741 21.8968207,26.3823215 C21.955982,26.8994968 21.3490687,29.5904246 21.2689969,29.8553615 C21.1884152,30.116258 21.1884152,30.2582503 21.2516566,30.7090471 C21.3087778,31.1650387 21.7157667,31.5679275 21.7346372,31.9454194 C21.7417773,32.079908 21.7591177,32.2299812 21.7820682,32.3719736 L8.14997892,33.5650555 L8.14844889,33.5650555 C8.08928759,33.3497581 8.14844889,32.6663479 8.31063245,31.8975114 C8.47179599,31.1396417 9.24191289,28.8319778 9.66777224,28.4013831 C10.0910815,27.9748289 10.6556639,26.7852103 10.6556639,26.7852103 C10.6556639,26.7852103 10.9575906,26.9231622 11.160065,27.1644337 C11.3650895,27.4057052 12.253529,27.952318 12.6967287,28.2842106 C13.1419685,28.6137944 14.3139742,29.5228917 14.3751756,29.738189 C14.438417,29.9494459 14.438417,30.1907174 14.3751756,30.4966358 C14.3160143,30.8089035 14.3160143,31.3301193 14.3160143,31.6366149 C14.3160143,31.9442649 15.2263843,32.5410945 15.48904,32.5901569 C15.7532258,32.6357561 15.8144272,32.0412353 15.8730785,31.6366149 C15.9342798,31.2354577 15.7532258,30.2576731 15.5930823,30.020442 C15.4298787,29.7837881 15.2676952,29.1632932 15.0065695,28.7806066 C14.7418736,28.4013831 13.0246659,26.9751106 12.8028111,26.832541 C12.5794262,26.6922803 12.5421953,25.8807307 12.5421953,25.5032389 C12.5421953,25.119975 13.20878,24.28476 13.7733624,23.0518509 C14.3399848,21.8131699 14.6827123,20.575066 14.6827123,20.575066 C14.6827123,20.575066 14.941798,20.5058015 15.3268565,20.6223968 C15.7108949,20.7430326 16.9048311,21.1932521 18.0982573,21.5245676 C19.2906635,21.8605007 21.5729636,21.6198063 21.6586455,21.6671371 C21.7346372,21.7190855 21.9580221,23.4812912 21.9177312,23.810875 Z M23.7889623,9.11293716 C23.9389055,9.35305427 23.9944968,9.66532196 23.9771564,9.74786221 C23.9664462,9.82289881 23.7119506,9.42751366 23.5620073,9.33285211 C23.412064,9.24223099 23.048936,9.00095947 23.048936,9.00095947 C23.048936,9.00095947 23.642079,8.87570607 23.7889623,9.11293716 Z M31.4615707,9.12852168 C31.067332,9.06618359 30.5573208,8.99922785 30.5573208,8.99922785 L31.4075095,9.48927455 C31.4075095,9.48927455 29.564329,8.84511423 28.4035436,9.30283747 C27.2498982,9.76575556 24.9237372,10.7868305 24.9237372,10.7868305 C24.961988,10.7591247 27.7512392,8.6656036 29.6673513,8.60730593 C31.5804033,8.5403502 33.524566,9.68090648 33.524566,9.68090648 C33.524566,9.68090648 31.8491792,9.18855096 31.4615707,9.12852168 Z" id="Shape"></path>
            </g>
        </g>
    </g>
</svg>