<?xml version="1.0" encoding="UTF-8" standalone="no"?>
<svg width="106px" height="106px" viewBox="0 0 106 106" version="1.1" xmlns="http://www.w3.org/2000/svg" xmlns:xlink="http://www.w3.org/1999/xlink">
    <!-- Generator: Sketch 43.1 (39012) - http://www.bohemiancoding.com/sketch -->
    <title>002-money-1</title>
    <desc>Created with Sketch.</desc>
    <defs></defs>
    <g id="Page-1" stroke="none" stroke-width="1" fill="none" fill-rule="evenodd">
        <g id="Home-page" transform="translate(-614.000000, -1162.000000)" fill-rule="nonzero">
            <g id="002-money-1" transform="translate(614.000000, 1162.000000)">
                <path d="M103.072177,75.8028226 C101.212903,74.1145161 98.733871,73.3024194 96.2120968,73.558871 L66.6133065,76.5721774 C66.7201613,75.6318548 66.6560484,74.6487903 66.3782258,73.6657258 C65.2455645,69.8189516 61.1850806,67.575 57.3169355,68.6862903 L54.7096774,69.4556452 L54.7096774,59.0693548 L63.8137097,53 C72.0415323,52.7008065 78.6451613,45.9475806 78.6451613,37.6342742 L78.6451613,35.9245968 L76.9354839,35.9245968 C68.7717742,35.9245968 62.0826613,42.3145161 61.591129,50.371371 L54.7096774,54.9447581 L54.7096774,29.0858871 L51.2903226,29.0858871 L51.2903226,46.4177419 L44.408871,41.8229839 C43.9173387,33.7875 37.2282258,27.3762097 29.0645161,27.3762097 L27.3548387,27.3762097 L27.3548387,29.0858871 C27.3548387,37.3778226 33.9584677,44.1524194 42.1862903,44.4516129 L51.2903226,50.5209677 L51.2903226,70.4387097 L28.8294355,76.9141129 L15.3870968,76.9141129 L15.3870968,73.4947581 L0,73.4947581 L0,104.268952 L15.3870968,104.268952 L15.3870968,102.794355 L39.0875,105.957258 L63.6,105.978629 L100.529032,90.5915323 C103.841532,89.2024194 106,85.9967742 106,82.3850806 C106,79.8846774 104.931452,77.491129 103.072177,75.8028226 Z M75.0762097,39.4935484 C74.2854839,44.6225806 70.225,48.6616935 65.0959677,49.4737903 C65.9080645,44.3233871 69.9685484,40.2842742 75.0762097,39.4935484 Z M30.9237903,30.9451613 C36.0528226,31.7358871 40.0919355,35.796371 40.9040323,40.9254032 C35.775,40.1133065 31.7145161,36.0528226 30.9237903,30.9451613 Z M11.9677419,100.849597 L3.41935484,100.849597 L3.41935484,76.9141129 L11.9677419,76.9141129 L11.9677419,100.849597 Z M99.2254032,87.428629 L62.916129,102.559274 L39.4294355,102.559274 L15.3870968,99.353629 L15.3870968,80.3334677 L29.0645161,80.3334677 L58.278629,71.9774194 C60.3302419,71.3790323 62.5100806,72.5758065 63.1084677,74.6274194 C63.6427419,76.4866935 62.7879032,78.4314516 61.0354839,79.2649194 L40.3056452,89.0528226 L41.758871,92.1516129 L62.4887097,82.3637097 C63.578629,81.8508065 64.4762097,81.0814516 65.1814516,80.1625 L96.5754032,76.9782258 C98.1354839,76.8072581 99.6314516,77.3201613 100.785484,78.3673387 C101.939516,79.4145161 102.580645,80.846371 102.580645,82.4278226 C102.580645,84.6076613 101.255645,86.5951613 99.2254032,87.428629 Z" id="Shape" fill="#333333"></path>
                <path d="M53,30.7955645 C44.5157258,30.7955645 37.6129032,23.8927419 37.6129032,15.4084677 C37.6129032,6.92419355 44.5157258,0.0213709677 53,0.0213709677 C61.4842742,0.0213709677 68.3870968,6.92419355 68.3870968,15.4084677 C68.3870968,23.8927419 61.4842742,30.7955645 53,30.7955645 Z" id="Shape" fill="#F9BA48"></path>
                <g id="Group" transform="translate(1.709677, 1.709677)" fill="#333333">
                    <polygon id="Shape" points="92.3225806 15.4084677 92.3225806 18.8278226 95.7419355 18.8278226 95.7419355 22.2471774 99.1612903 22.2471774 99.1612903 18.8278226 102.580645 18.8278226 102.580645 15.4084677 99.1612903 15.4084677 99.1612903 11.9891129 95.7419355 11.9891129 95.7419355 15.4084677"></polygon>
                    <path d="M53,18.8278226 L49.5806452,18.8278226 C48.6403226,18.8278226 47.8709677,18.0584677 47.8709677,17.1181452 L44.4516129,17.1181452 C44.4516129,19.9391129 46.7596774,22.2471774 49.5806452,22.2471774 L49.5806452,23.9568548 L53,23.9568548 L53,22.2471774 C55.8209677,22.2471774 58.1290323,19.9391129 58.1290323,17.1181452 C58.1290323,14.2971774 55.8209677,11.9891129 53,11.9891129 L49.5806452,11.9891129 C48.6403226,11.9891129 47.8709677,11.2197581 47.8709677,10.2794355 C47.8709677,9.3391129 48.6403226,8.56975806 49.5806452,8.56975806 L53,8.56975806 C53.9403226,8.56975806 54.7096774,9.3391129 54.7096774,10.2794355 L58.1290323,10.2794355 C58.1290323,7.45846774 55.8209677,5.15040323 53,5.15040323 L53,3.44072581 L49.5806452,3.44072581 L49.5806452,5.15040323 C46.7596774,5.15040323 44.4516129,7.45846774 44.4516129,10.2794355 C44.4516129,13.1004032 46.7596774,15.4084677 49.5806452,15.4084677 L53,15.4084677 C53.9403226,15.4084677 54.7096774,16.1778226 54.7096774,17.1181452 C54.7096774,18.0584677 53.9403226,18.8278226 53,18.8278226 Z" id="Shape"></path>
                    <polygon id="Shape" points="83.7741935 13.6987903 87.1935484 13.6987903 87.1935484 8.56975806 92.3225806 8.56975806 92.3225806 5.15040323 87.1935484 5.15040323 87.1935484 0.0213709677 83.7741935 0.0213709677 83.7741935 5.15040323 78.6451613 5.15040323 78.6451613 8.56975806 83.7741935 8.56975806"></polygon>
                    <polygon id="Shape" points="88.9032258 32.5052419 88.9032258 29.0858871 92.3225806 29.0858871 92.3225806 25.6665323 88.9032258 25.6665323 88.9032258 22.2471774 85.483871 22.2471774 85.483871 25.6665323 82.0645161 25.6665323 82.0645161 29.0858871 85.483871 29.0858871 85.483871 32.5052419"></polygon>
                    <polygon id="Shape" points="17.0967742 18.8278226 20.516129 18.8278226 20.516129 15.4084677 23.9354839 15.4084677 23.9354839 11.9891129 20.516129 11.9891129 20.516129 8.56975806 17.0967742 8.56975806 17.0967742 11.9891129 13.6774194 11.9891129 13.6774194 15.4084677 17.0967742 15.4084677"></polygon>
                    <polygon id="Shape" points="5.12903226 32.5052419 8.5483871 32.5052419 8.5483871 27.3762097 13.6774194 27.3762097 13.6774194 23.9568548 8.5483871 23.9568548 8.5483871 18.8278226 5.12903226 18.8278226 5.12903226 23.9568548 0 23.9568548 0 27.3762097 5.12903226 27.3762097"></polygon>
                </g>
            </g>
        </g>
    </g>
</svg>