<?xml version="1.0" encoding="UTF-8" standalone="no"?>
<svg width="125px" height="94px" viewBox="0 0 125 94" version="1.1" xmlns="http://www.w3.org/2000/svg" xmlns:xlink="http://www.w3.org/1999/xlink">
    <!-- Generator: Sketch 43.1 (39012) - http://www.bohemiancoding.com/sketch -->
    <title>006-sports copy</title>
    <desc>Created with Sketch.</desc>
    <defs></defs>
    <g id="Page-1" stroke="none" stroke-width="1" fill="none" fill-rule="evenodd">
        <g id="tryingg" transform="translate(-248.000000, -470.000000)" fill-rule="nonzero" fill="#CC9F35">
            <g id="006-sports-copy" transform="translate(248.560079, 470.541389)">
                <path d="M122.264717,76.3581424 C118.914267,76.3581424 115.840863,74.8551976 113.832813,72.2352406 C113.459014,71.7473444 112.867385,71.4595519 112.238217,71.4595519 C111.60667,71.4600617 111.014777,71.7491287 110.641506,72.2380446 C108.672053,74.8179809 105.5241,76.3581424 102.220705,76.3581424 C98.9191615,76.3581424 95.7672431,74.8169612 93.7888018,72.2352406 C93.4150022,71.7473444 92.8233731,71.4595519 92.1942055,71.4595519 C91.5650379,71.4595519 90.9734088,71.7473444 90.5996092,72.2352406 C88.6211678,74.8167063 85.4689852,76.3581424 82.1677056,76.3581424 C78.8236004,76.3581424 75.7533681,74.8551976 73.7445258,72.2349857 C73.3704618,71.7473444 72.7788328,71.4595519 72.1499295,71.4595519 C71.5210263,71.4595519 70.9293972,71.7473444 70.5555976,72.2352406 C68.5771562,74.8167063 65.4249736,76.3581424 62.123694,76.3581424 C58.8200353,76.3581424 55.6720823,74.8179809 53.702629,72.2380446 C53.3296225,71.7496386 52.7387865,71.4608264 52.1098833,71.4595519 C51.4783364,71.4595519 50.8877648,71.7460698 50.5137009,72.2319268 C48.4958704,74.854178 45.4216728,76.3581424 42.0796824,76.3581424 C38.776288,76.3581424 35.6280707,74.8179809 33.6588818,72.2380446 C33.2856109,71.7491287 32.6937175,71.4600617 32.0640212,71.4595519 C31.4332674,71.4595519 30.841374,71.7473444 30.4675744,72.2352406 C28.4893974,74.8169612 25.3337781,76.3581424 22.026154,76.3581424 C18.731219,76.3581424 15.582473,74.8167063 13.6027098,72.2347308 C13.2286458,71.7470895 12.6372811,71.4595519 12.0081135,71.4595519 C11.3789459,71.4595519 10.7875812,71.7475993 10.4137816,72.2352406 C8.4065254,74.8551976 5.33338522,76.3581424 1.98267109,76.3581424 C0.887707934,76.3581424 0,77.2138726 0,78.2699615 C0,79.3260505 0.887707934,80.1817807 1.98267109,80.1817807 C5.72859766,80.1817807 9.33282934,78.7463869 12.0091709,76.2597474 C14.6852482,78.7466418 18.2860432,80.1817807 22.0266827,80.1817807 C25.776839,80.1817807 29.3831855,78.7474065 32.0603202,76.2615318 C34.7308459,78.7471516 38.3321697,80.1817807 42.0802111,80.1817807 C45.8803307,80.1817807 49.4258753,78.776976 52.1077684,76.2648456 C54.7780298,78.7484262 58.3780318,80.1817807 62.1244871,80.1817807 C65.8677701,80.1817807 69.4693582,78.7486811 72.1451711,76.2648456 C74.8212484,78.776976 78.3649425,80.1817807 82.1682343,80.1817807 C85.9138966,80.1817807 89.5181282,78.7463869 92.1944698,76.2597474 C94.8708115,78.7463869 98.4747788,80.1817807 102.22097,80.1817807 C105.969011,80.1817807 109.570071,78.7474065 112.240596,76.2617867 C114.916938,78.7471516 118.520112,80.1817807 122.264717,80.1817807 C123.35968,80.1817807 124.247388,79.3260505 124.247388,78.2699615 C124.247388,77.2138726 123.35968,76.3581424 122.264717,76.3581424 Z" id="Shape"></path>
                <path d="M1.98267109,92.8422721 C5.72859766,92.8422721 9.33282934,91.4068782 12.0091709,88.9202388 C13.5202307,90.3245337 15.3263118,91.3928582 17.2857196,92.0574066 C17.3808878,92.0964077 17.4805501,92.126487 17.5825915,92.1509583 C19.0056207,92.6006181 20.5039913,92.8422721 22.0266827,92.8422721 C23.5517533,92.8422721 25.0519744,92.6013828 26.4765897,92.1524877 C26.5751945,92.1285262 26.6716845,92.0997215 26.7636805,92.0622498 C28.731812,91.3984662 30.5450307,90.329122 32.0603202,88.9220231 C34.7308459,91.407643 38.3321697,92.8422721 42.0802111,92.8422721 C45.8803307,92.8422721 49.4258753,91.4374673 52.1077684,88.925337 C53.6161846,90.3283573 55.421737,91.3959171 57.3827309,92.0594458 C57.4789566,92.0989568 57.5796763,92.129291 57.6830395,92.1540172 C59.1047468,92.6018927 60.6017957,92.8422721 62.1244871,92.8422721 C63.6445349,92.8422721 65.1399976,92.6021476 66.5609119,92.1550368 C66.66639,92.1300557 66.7694889,92.0989568 66.867565,92.0584262 C68.8277659,91.3946426 70.6341114,90.3278475 72.1451711,88.9250821 C74.8212484,91.4374673 78.3649425,92.8422721 82.1682343,92.8422721 C85.9138966,92.8422721 89.5181282,91.4068782 92.1944698,88.9202388 C94.8708115,91.4068782 98.4747788,92.8422721 102.22097,92.8422721 C105.969011,92.8422721 109.570071,91.4078979 112.240596,88.922278 C114.916938,91.407643 118.520112,92.8422721 122.264717,92.8422721 C123.35968,92.8422721 124.247388,91.9865418 124.247388,90.9304529 C124.247388,89.874364 123.35968,89.0186337 122.264717,89.0186337 C118.914267,89.0186337 115.840863,87.515689 113.832813,84.895732 C113.459014,84.4078357 112.867385,84.1200432 112.238217,84.1200432 C111.60667,84.120553 111.014777,84.4096201 110.641506,84.898536 C108.672317,87.4784722 105.524364,89.0186337 102.22097,89.0186337 C98.9194258,89.0186337 95.7675075,87.4774526 93.7890661,84.895732 C93.4152665,84.4078357 92.8236375,84.1200432 92.1944698,84.1200432 C91.5653022,84.1200432 90.9736732,84.4078357 90.5998736,84.895732 C88.6214322,87.4771977 85.4695139,89.0186337 82.1682343,89.0186337 C78.8241291,89.0186337 75.7538968,87.515689 73.7450545,84.8954771 C73.3709906,84.4078357 72.7793615,84.1200432 72.1504582,84.1200432 C71.521555,84.1200432 70.9299259,84.4078357 70.5561263,84.895732 C69.8595479,85.8047383 69.0151944,86.5814467 68.072236,87.2105626 L68.072236,25.0672631 C68.072236,17.5703828 74.3974855,11.470915 82.172464,11.470915 C89.9474426,11.470915 96.2726921,17.5703828 96.2726921,25.0672631 C96.2726921,28.2296669 98.9408387,30.8027206 102.220705,30.8027206 C105.500572,30.8027206 108.168719,28.2296669 108.168719,25.0672631 C108.168719,11.2450654 96.5069116,0 82.172464,0 C67.8380164,0 56.1762095,11.2450654 56.1762095,25.0672631 L56.1762095,45.8836599 L27.974696,45.8836599 L27.974696,25.0672631 C27.974696,17.5703828 34.2999454,11.470915 42.074924,11.470915 C45.4679351,11.470915 48.7509741,12.658792 51.3194584,14.8158338 C52.1450426,15.5099516 53.397562,15.4265963 54.1168751,14.630005 C54.8359238,13.8339235 54.7497437,12.6261636 53.9238951,11.9328105 C50.6334542,9.16933962 46.4254331,7.64727666 42.0751884,7.64727666 C32.1137201,7.64727666 24.0096181,15.4617738 24.0096181,25.0672631 L24.0096181,45.8836599 L20.044276,45.8836599 L20.044276,25.0672631 C20.044276,13.3534196 29.9272304,3.82363833 42.0751884,3.82363833 C46.9255949,3.82363833 51.5304146,5.32250455 55.3916004,8.15785983 C56.2621252,8.79768197 57.5064496,8.63504989 58.1702479,7.795124 C58.8335174,6.95519812 58.6653869,5.75559532 57.7940691,5.11577317 C53.2365691,1.76881509 47.8008781,9.05619479e-16 42.0751884,9.05619479e-16 C27.7407408,9.05619479e-16 16.0789338,11.2450654 16.0789338,25.0672631 L16.0789338,87.2049546 C15.1399408,86.5766034 14.2984952,85.8019343 13.6035029,84.8952222 C13.2294389,84.4075808 12.6380742,84.1200432 12.0089066,84.1200432 C11.379739,84.1200432 10.7883743,84.4080906 10.4145747,84.895732 C8.4065254,87.515689 5.33338522,89.0186337 1.98267109,89.0186337 C0.887707934,89.0186337 0,89.874364 0,90.9304529 C0,91.9865418 0.887707934,92.8422721 1.98267109,92.8422721 Z M53.7031577,84.898536 C53.3301512,84.4101299 52.7393152,84.1213178 52.110412,84.1200432 C51.4788651,84.1200432 50.8882935,84.4065612 50.5142296,84.8924182 C48.4963991,87.5149242 45.4222015,89.0186337 42.0802111,89.0186337 C38.7768167,89.0186337 35.6285994,87.4784722 33.6594105,84.898536 C33.2861396,84.4096201 32.6942462,84.120553 32.0645499,84.1200432 C31.4337961,84.1200432 30.8419027,84.4078357 30.4681031,84.895732 C29.7694098,85.8075423 28.921884,86.5862899 27.974696,87.2164255 L27.974696,76.4730215 L56.1762095,76.4730215 L56.1762095,87.2097979 C55.2364234,86.5811918 54.3957708,85.8057579 53.7031577,84.898536 Z M56.1762095,57.3545749 L56.1762095,65.0018516 L27.974696,65.0018516 L27.974696,57.3545749 L56.1762095,57.3545749 L56.1762095,57.3545749 Z M24.0093538,65.0018516 L20.0440116,65.0018516 L20.0440116,57.3545749 L24.0093538,57.3545749 L24.0093538,65.0018516 Z M20.0440116,68.8254899 L56.1762095,68.8254899 L56.1762095,72.6491282 L20.0440116,72.6491282 L20.0440116,68.8254899 Z M60.1415516,25.0672631 C60.1415516,13.3534196 70.0245061,3.82363833 82.172464,3.82363833 C94.320422,3.82363833 104.203376,13.3534196 104.203376,25.0672631 C104.203376,26.1215676 103.313818,26.9790822 102.220705,26.9790822 C101.127328,26.9790822 100.238034,26.1215676 100.238034,25.0672631 C100.238034,15.4617738 92.1339323,7.64727666 82.172464,7.64727666 C72.2109958,7.64727666 64.1068938,15.4617738 64.1068938,25.0672631 L64.1068938,88.8292362 C63.4576351,88.9518475 62.7943656,89.0186337 62.1242227,89.0186337 C61.4538156,89.0186337 60.790546,88.9521024 60.1415516,88.8292362 L60.1415516,25.0672631 L60.1415516,25.0672631 Z M56.1762095,49.7072983 L56.1762095,53.5309366 L20.0440116,53.5309366 L20.0440116,49.7072983 L56.1762095,49.7072983 Z M20.0440116,76.4727666 L24.0093538,76.4727666 L24.0093538,88.829746 C23.3600951,88.9521024 22.6968255,89.0186337 22.0266827,89.0186337 C21.3565399,89.0186337 20.6932703,88.9515926 20.0440116,88.8284715 L20.0440116,76.4727666 Z" id="Shape"></path>
            </g>
        </g>
    </g>
</svg>